<svg width="42" height="42" viewBox="0 0 42 42" fill="none" xmlns="http://www.w3.org/2000/svg">
<g clip-path="url(#clip0)">
<path d="M21 42C32.598 42 42 32.598 42 21C42 9.40202 32.598 0 21 0C9.40202 0 0 9.40202 0 21C0 32.598 9.40202 42 21 42Z" fill="#888888"/>
<path d="M21 25C25.9706 25 30 20.9706 30 16C30 11.0294 25.9706 7 21 7C16.0294 7 12 11.0294 12 16C12 20.9706 16.0294 25 21 25Z" fill="white"/>
<path d="M21 58C29.2843 58 36 51.2843 36 43C36 34.7157 29.2843 28 21 28C12.7157 28 6 34.7157 6 43C6 51.2843 12.7157 58 21 58Z" fill="white"/>
</g>
<defs>
<clipPath id="clip0">
<rect width="42" height="42" fill="white"/>
</clipPath>
</defs>
</svg>
